# xmcd
#
# Track frame offsets: 
#        150
#        23750
#        45072
#        65464
#        80432
#        93262
#        110135
#        122825
#        134940
#        147930
#        162257
#        175492
#
# Disc length: 2484 seconds
#
# Revision: 0
# Processed by: cddbd v1.4PL0 Copyright (c) Steve Scherf et al.
# Submitted via: ExactAudioCopy v0.90b3
#
DISCID=a509b20c
DTITLE=Conway Twitty - 36 All-Time Greatest Hits - Disc 2
DYEAR=1900
DGENRE=Country
TTITLE0=Rainy Night In Georgia
TTITLE1=Red Neckin' Love Makin' Night
TTITLE2=Rest Your Love On Me
TTITLE3=Saturday Night Special
TTITLE4=Next In Line
TTITLE5=She's Got A Single Thing In Mind
TTITLE6=I Can't Stop Loving You
TTITLE7=I Can't See Me Without You
TTITLE8=Happy Birthday Darlin'
TTITLE9=Fifteen Years Ago
TTITLE10=How Much More Can She Stand
TTITLE11=Hello Darlin'
EXTD=
EXTT0=
EXTT1=
EXTT2=
EXTT3=
EXTT4=
EXTT5=
EXTT6=
EXTT7=
EXTT8=
EXTT9=
EXTT10=
EXTT11=
PLAYORDER=
